<mxfile host="www.draw.io" modified="2019-10-21T08:45:16.493Z" agent="Mozilla/5.0 (Windows NT 6.1; Win64; x64) AppleWebKit/537.36 (KHTML, like Gecko) Chrome/77.0.3865.120 Safari/537.36" etag="Ur6V4l8h-pc4tOoJlMqc" version="12.1.3" type="github" pages="1">
  <diagram id="6a731a19-8d31-9384-78a2-239565b7b9f0" name="Page-1">
    <mxGraphModel dx="1005" dy="515" grid="1" gridSize="10" guides="1" tooltips="1" connect="1" arrows="1" fold="1" page="1" pageScale="1" pageWidth="1169" pageHeight="827" background="#ffffff" math="0" shadow="0">
      <root>
        <mxCell id="0"/>
        <mxCell id="1" parent="0"/>
        <mxCell id="eC_WYIJNpsr5yDgWPH35-57" value="" style="edgeStyle=orthogonalEdgeStyle;rounded=0;orthogonalLoop=1;jettySize=auto;html=1;" edge="1" parent="1" source="eC_WYIJNpsr5yDgWPH35-55" target="eC_WYIJNpsr5yDgWPH35-56">
          <mxGeometry relative="1" as="geometry"/>
        </mxCell>
        <mxCell id="eC_WYIJNpsr5yDgWPH35-55" value="Start" style="ellipse;whiteSpace=wrap;html=1;" vertex="1" parent="1">
          <mxGeometry x="350" y="40" width="120" height="80" as="geometry"/>
        </mxCell>
        <mxCell id="eC_WYIJNpsr5yDgWPH35-59" value="" style="edgeStyle=orthogonalEdgeStyle;rounded=0;orthogonalLoop=1;jettySize=auto;html=1;" edge="1" parent="1" source="eC_WYIJNpsr5yDgWPH35-56" target="eC_WYIJNpsr5yDgWPH35-58">
          <mxGeometry relative="1" as="geometry"/>
        </mxCell>
        <mxCell id="eC_WYIJNpsr5yDgWPH35-56" value="Variable X, Variable Y, Variable Z" style="shape=hexagon;perimeter=hexagonPerimeter2;whiteSpace=wrap;html=1;" vertex="1" parent="1">
          <mxGeometry x="350" y="160" width="120" height="80" as="geometry"/>
        </mxCell>
        <mxCell id="eC_WYIJNpsr5yDgWPH35-61" value="" style="edgeStyle=orthogonalEdgeStyle;rounded=0;orthogonalLoop=1;jettySize=auto;html=1;" edge="1" parent="1" source="eC_WYIJNpsr5yDgWPH35-58" target="eC_WYIJNpsr5yDgWPH35-60">
          <mxGeometry relative="1" as="geometry"/>
        </mxCell>
        <mxCell id="eC_WYIJNpsr5yDgWPH35-58" value="Input Var X, Y" style="shape=parallelogram;perimeter=parallelogramPerimeter;whiteSpace=wrap;html=1;" vertex="1" parent="1">
          <mxGeometry x="350" y="290" width="120" height="60" as="geometry"/>
        </mxCell>
        <mxCell id="eC_WYIJNpsr5yDgWPH35-63" value="" style="edgeStyle=orthogonalEdgeStyle;rounded=0;orthogonalLoop=1;jettySize=auto;html=1;" edge="1" parent="1" source="eC_WYIJNpsr5yDgWPH35-60" target="eC_WYIJNpsr5yDgWPH35-62">
          <mxGeometry relative="1" as="geometry"/>
        </mxCell>
        <mxCell id="eC_WYIJNpsr5yDgWPH35-60" value="X = Z&lt;br&gt;X = Y&lt;br&gt;Y = Z" style="rounded=0;whiteSpace=wrap;html=1;" vertex="1" parent="1">
          <mxGeometry x="520" y="290" width="120" height="60" as="geometry"/>
        </mxCell>
        <mxCell id="eC_WYIJNpsr5yDgWPH35-65" value="" style="edgeStyle=orthogonalEdgeStyle;rounded=0;orthogonalLoop=1;jettySize=auto;html=1;" edge="1" parent="1" source="eC_WYIJNpsr5yDgWPH35-62" target="eC_WYIJNpsr5yDgWPH35-64">
          <mxGeometry relative="1" as="geometry"/>
        </mxCell>
        <mxCell id="eC_WYIJNpsr5yDgWPH35-62" value="Tampilkan Var Z" style="shape=parallelogram;perimeter=parallelogramPerimeter;whiteSpace=wrap;html=1;" vertex="1" parent="1">
          <mxGeometry x="680" y="290" width="120" height="60" as="geometry"/>
        </mxCell>
        <mxCell id="eC_WYIJNpsr5yDgWPH35-64" value="End" style="ellipse;whiteSpace=wrap;html=1;" vertex="1" parent="1">
          <mxGeometry x="680" y="400" width="120" height="80" as="geometry"/>
        </mxCell>
      </root>
    </mxGraphModel>
  </diagram>
</mxfile>
